<?xml version="1.0" encoding="iso-8859-1"?>
<!-- Uploaded to: SVG Repo, www.svgrepo.com, Generator: SVG Repo Mixer Tools -->
<svg fill="#000000" height="800px" width="800px" version="1.1" id="Layer_1" xmlns="http://www.w3.org/2000/svg" xmlns:xlink="http://www.w3.org/1999/xlink" 
	 viewBox="0 0 512 512" xml:space="preserve">
<g>
	<g>
		<g>
			<path d="M282.425,179.455c5.553,4.332,12.455,6.623,19.956,6.623h0.003c13.996,0,28.396-7.748,38.513-20.726
				c7.478-9.589,11.699-20.907,11.886-31.867c0.202-11.818-4.223-21.863-12.458-28.285c-5.554-4.331-12.456-6.62-19.957-6.62
				c-14,0-28.4,7.749-38.517,20.727c-7.478,9.589-11.698,20.907-11.884,31.866C269.766,162.992,274.191,173.037,282.425,179.455z
				 M294.602,129.249c6.973-8.944,16.846-14.501,25.767-14.501c3.92,0,7.29,1.078,10.014,3.202
				c4.134,3.223,6.348,8.641,6.234,15.259c-0.127,7.475-3.134,15.36-8.47,22.199c-6.974,8.944-16.845,14.5-25.763,14.5h-0.002
				c-3.92,0-7.29-1.078-10.015-3.204c-4.133-3.222-6.347-8.641-6.233-15.258C286.26,143.973,289.266,136.09,294.602,129.249z"/>
			<path d="M229.581,179.457c16.277-12.693,16.534-39.676,0.571-60.149c-10.12-12.979-24.519-20.728-38.518-20.728
				c-7.501,0-14.402,2.289-19.959,6.622c-16.277,12.694-16.534,39.678-0.572,60.151c10.118,12.977,24.518,20.726,38.519,20.726
				C217.123,186.078,224.024,183.789,229.581,179.457z M183.854,155.41c-10.304-13.215-11.328-30.369-2.237-37.458
				c2.726-2.126,6.096-3.204,10.017-3.204c8.918,0,18.794,5.557,25.767,14.501c10.304,13.215,11.328,30.368,2.237,37.457
				c-2.726,2.126-6.097,3.203-10.018,3.203C200.7,169.91,190.827,164.354,183.854,155.41z"/>
			<path d="M226.696,219.907c-1.963,4.011-0.303,8.852,3.707,10.815l22.044,10.788c1.123,0.55,2.339,0.822,3.554,0.822
				c1.374,0,2.746-0.35,3.977-1.047l19.082-10.788c3.887-2.197,5.257-7.129,3.06-11.016c-2.199-3.887-7.129-5.257-11.016-3.059
				l-15.376,8.691l-18.219-8.915C233.495,214.235,228.656,215.896,226.696,219.907z"/>
			<path d="M380.51,452.966V296.294c0-28.1-22.669-50.992-50.678-51.379c15.652-10.393,29.008-24,39.135-40.004
				c13.491-21.319,20.621-45.984,20.621-71.326C389.588,59.927,329.661,0,256,0S122.413,59.927,122.413,133.587
				c0,25.343,7.13,50.008,20.622,71.326c10.121,15.995,23.469,29.595,39.111,39.986h-2.22c-28.342,0-51.4,23.057-51.4,51.397V453.54
				c-12.391,3.102-21.598,14.328-21.598,27.667v2.27c0,15.728,12.795,28.522,28.522,28.522h54.559c4.466,0,8.084-3.62,8.084-8.084
				s-3.619-8.084-8.084-8.084H135.45c-6.811,0-12.354-5.542-12.354-12.354v-2.27c0-6.811,5.543-12.354,12.354-12.354h1.16h235.814
				h4.124c6.811,0,12.354,5.542,12.354,12.354v2.27c0,6.811-5.542,12.354-12.354,12.354H216.96c-4.466,0-8.084,3.62-8.084,8.084
				S212.495,512,216.96,512h159.59c15.728,0,28.522-12.795,28.522-28.522v-2.27C405.072,466.824,394.369,454.901,380.51,452.966z
				 M138.581,133.587c0-64.745,52.675-117.418,117.419-117.418S373.42,68.842,373.42,133.587c0,44.898-25,85.212-65.244,105.211
				c-1.698,0.844-3.045,2.257-3.806,3.994c-0.876,1.998-1.872,3.918-2.967,5.763c-0.057,0.087-0.124,0.166-0.178,0.255
				c-2.333,3.871-5.095,7.356-8.195,10.43c-0.203,0.199-0.403,0.401-0.609,0.597c-0.535,0.513-1.084,1.009-1.638,1.497
				c-6.531,5.718-14.418,9.781-22.977,11.745c-0.146,0.033-0.29,0.068-0.435,0.1c-0.573,0.126-1.15,0.247-1.729,0.354
				c-0.719,0.132-1.443,0.25-2.171,0.352c-0.372,0.053-0.746,0.1-1.121,0.146c-0.881,0.105-1.763,0.196-2.655,0.257
				c-0.198,0.014-0.398,0.022-0.596,0.033c-1.026,0.059-2.058,0.099-3.096,0.099c-1.039,0-2.071-0.041-3.098-0.099
				c-0.197-0.012-0.396-0.019-0.593-0.032c-0.891-0.061-1.776-0.152-2.658-0.257c-0.373-0.045-0.745-0.092-1.116-0.144
				c-0.733-0.102-1.461-0.222-2.186-0.355c-0.573-0.107-1.144-0.225-1.713-0.35c-0.151-0.032-0.301-0.069-0.452-0.103
				c-8.556-1.966-16.439-6.028-22.967-11.744c-0.553-0.487-1.101-0.981-1.635-1.494c-0.209-0.199-0.413-0.404-0.618-0.607
				c-3.097-3.073-5.858-6.556-8.19-10.424c-0.048-0.081-0.11-0.153-0.161-0.232c-1.101-1.852-2.101-3.779-2.98-5.786
				c-0.761-1.736-2.108-3.151-3.806-3.996C163.583,218.799,138.581,178.484,138.581,133.587z M364.339,452.683h-41.231V332.463
				c0-4.465-3.618-8.084-8.084-8.084c-4.466,0-8.084,3.62-8.084,8.084v120.223H205.063V332.463c0-4.465-3.618-8.084-8.084-8.084
				c-4.466,0-8.084,3.62-8.084,8.084v120.223h-44.2V296.295c0-19.425,15.805-35.229,35.232-35.229h19.517
				c1.496,2.145,3.107,4.192,4.819,6.136c0.174,0.198,0.345,0.398,0.52,0.594c0.132,0.146,0.264,0.288,0.397,0.432
				c11.794,12.953,27.992,20.885,45.717,22.167c0.101,0.008,0.202,0.016,0.303,0.023c0.654,0.044,1.31,0.079,1.967,0.105
				c0.159,0.006,0.318,0.016,0.477,0.022c0.783,0.026,1.567,0.042,2.354,0.042s1.572-0.016,2.354-0.042
				c0.16-0.005,0.318-0.015,0.476-0.022c0.659-0.026,1.315-0.061,1.969-0.106c0.1-0.008,0.201-0.015,0.3-0.023
				c17.69-1.279,33.86-9.184,45.649-22.091c0.168-0.183,0.338-0.364,0.504-0.55c0.119-0.133,0.234-0.267,0.351-0.401
				c1.765-1.99,3.419-4.087,4.954-6.288h16.554c19.425,0,35.228,15.803,35.228,35.229V452.683z"/>
		</g>
	</g>
</g>
</svg>