<!DOCTYPE svg PUBLIC "-//W3C//DTD SVG 1.1//EN" "http://www.w3.org/Graphics/SVG/1.1/DTD/svg11.dtd">
<!-- Uploaded to: SVG Repo, www.svgrepo.com, Transformed by: SVG Repo Mixer Tools -->
<svg fill="#000000" height="800px" width="800px" version="1.1" id="Layer_1" xmlns="http://www.w3.org/2000/svg" xmlns:xlink="http://www.w3.org/1999/xlink" viewBox="0 0 512.001 512.001" xml:space="preserve">
<g id="SVGRepo_bgCarrier" stroke-width="0"/>
<g id="SVGRepo_tracerCarrier" stroke-linecap="round" stroke-linejoin="round"/>
<g id="SVGRepo_iconCarrier"> <g> <g> <g> <path d="M447.362,449.344c-0.456-7.13-3.663-13.655-9.027-18.375c-4.886-4.298-11.157-6.664-17.659-6.664 c-7.691,0-15.014,3.31-20.09,9.081c-14.041,15.964-34.275,25.12-55.514,25.12c-34.736,0-63.935-24.097-71.8-56.449 c19.491,14.266,43.234,22.187,67.653,22.187c44.59,0,85.433-26.189,104.05-66.719c6.155-13.401,0.261-29.312-13.141-35.471 c-3.533-1.623-7.286-2.447-11.153-2.447c-10.421,0-19.966,6.118-24.316,15.587c-9.922,21.599-31.684,35.555-55.439,35.555 c-10.585,0-20.889-2.76-29.974-7.897c45.997-24.613,77.363-73.133,77.363-128.847c0-29.854-8.95-58.565-25.882-83.026 c-2.547-3.682-7.6-4.601-11.282-2.052c-3.682,2.548-4.601,7.599-2.052,11.282c15.046,21.736,22.999,47.254,22.999,73.796 c0,57.029-36.963,105.586-88.19,122.972c-0.18,0.061-0.361,0.117-0.542,0.177c-0.829,0.278-1.661,0.551-2.497,0.813 c-6.18,1.91-12.539,3.364-19.014,4.343c-0.219,0.034-0.436,0.079-0.649,0.129c-0.109,0.016-0.218,0.03-0.327,0.045 c-0.92,0.132-1.841,0.258-2.764,0.371c-0.453,0.055-0.907,0.106-1.362,0.157c-0.954,0.106-1.909,0.202-2.866,0.286 c-0.35,0.031-0.699,0.065-1.051,0.094c-2.694,0.216-5.4,0.35-8.115,0.4c-0.258,0.004-0.518,0.007-0.777,0.01 c-1.198,0.015-2.398,0.014-3.598-0.003c-0.178-0.002-0.357-0.003-0.535-0.007c-2.842-0.054-5.689-0.2-8.536-0.44 c-0.095-0.008-0.19-0.017-0.285-0.025c-1.342-0.116-2.683-0.253-4.024-0.411c-0.197-0.023-0.395-0.044-0.591-0.068 c-0.519-0.062-1.035-0.134-1.551-0.202c-63.353-8.555-112.357-62.978-112.357-128.639c0-71.581,58.235-129.816,129.816-129.816 c34.246,0,66.556,13.217,90.978,37.214c3.196,3.14,8.33,3.094,11.466-0.101c3.139-3.195,3.093-8.328-0.101-11.466 c-25.539-25.093-58.744-39.7-94.237-41.634V71.202c15.993-3.69,27.957-18.037,27.957-35.136C278.345,16.179,262.166,0,242.28,0 c-19.887,0-36.067,16.179-36.067,36.067c0,17.098,11.965,31.446,27.958,35.136v17.001 c-76.766,4.223-137.925,68.003-137.925,145.805c0,61.199,37.845,113.718,91.358,135.404 c-10.903,18.114-30.58,29.434-52.204,29.434c-10.782,0-21.364-2.843-30.603-8.221c-4.085-2.379-8.732-3.636-13.441-3.636 c-9.496,0-18.36,5.094-23.132,13.295c-3.595,6.174-4.57,13.378-2.745,20.285c1.825,6.907,6.231,12.69,12.405,16.284 c17.403,10.131,37.292,15.486,57.515,15.486c32.824,0,64.137-14.419,85.646-38.577c13.219,56.242,63.807,98.238,124.023,98.238 c36.61,0,71.486-15.776,95.68-43.282C445.472,463.354,447.82,456.473,447.362,449.344z M222.432,36.067 c0-10.945,8.904-19.85,19.85-19.85c10.944,0,19.849,8.904,19.849,19.85c0,10.945-8.904,19.849-19.849,19.849 C231.337,55.916,222.432,47.012,222.432,36.067z M135.403,436.123c-17.361,0-34.429-4.594-49.357-13.285 c-2.431-1.415-4.166-3.692-4.883-6.411c-0.719-2.719-0.335-5.554,1.081-7.985c1.88-3.229,5.373-5.236,9.117-5.236 c1.844,0,3.669,0.495,5.28,1.434c11.714,6.82,25.118,10.424,38.763,10.424c28.558,0,54.446-15.601,67.831-40.304 c4.802,1.338,9.594,2.408,14.444,3.224v6.623c0,0.773,0.012,1.561,0.03,2.361c0.027,1.453,0.071,2.902,0.146,4.343 C199.894,419.016,168.541,436.123,135.403,436.123z M271.173,377.166c5.485-1.105,10.857-2.523,16.101-4.226 c0.484-0.156,0.969-0.311,1.451-0.472c1.294-0.435,2.58-0.885,3.857-1.356c0.338-0.125,0.683-0.234,1.021-0.36 c13.51,10.491,30.127,16.217,47.322,16.217c30.073,0,57.618-17.665,70.176-45.002c1.714-3.73,5.474-6.14,9.579-6.14 c1.514,0,2.989,0.325,4.384,0.965c5.277,2.425,7.597,8.689,5.174,13.965c-15.981,34.791-51.039,57.272-89.314,57.272 c-26.134,0-51.377-10.567-69.753-29.094V377.166z M428.578,458.006c-21.117,24.008-51.554,37.777-83.504,37.777 c-58.403,0-106.43-45.266-110.845-102.555c-0.002-0.151,0.013-0.303,0.002-0.454c-0.165-2.268-0.265-4.252-0.308-6.107 c-0.013-0.685-0.026-1.372-0.026-2.061v-4.808c0.051,0.003,0.102,0.003,0.151,0.007c1.64,0.092,3.286,0.158,4.94,0.195 c0.258,0.005,0.516,0.005,0.774,0.01c0.839,0.014,1.678,0.032,2.52,0.032c0.492,0,0.979-0.014,1.47-0.018 c0.425-0.004,0.85-0.009,1.274-0.016c3.177-0.058,6.331-0.219,9.457-0.479c0.158-0.013,0.316-0.018,0.474-0.032v5.112 c0,49.691,40.427,90.118,90.117,90.118c25.898,0,50.571-11.164,67.691-30.627c1.998-2.271,4.882-3.574,7.912-3.574 c2.557,0,5.025,0.932,6.948,2.624c2.112,1.857,3.374,4.427,3.555,7.234C431.359,453.186,430.435,455.895,428.578,458.006z"/> <path d="M312.022,219.346c0-38.455-31.286-69.741-69.74-69.741c-38.455,0-69.74,31.286-69.74,69.741s31.286,69.74,69.74,69.74 C280.736,289.085,312.022,257.801,312.022,219.346z M242.282,272.868c-29.513,0-53.523-24.01-53.523-53.523 c0-29.513,24.011-53.524,53.523-53.524c29.513,0,53.523,24.01,53.523,53.524C295.805,248.859,271.795,272.868,242.282,272.868z"/> <path d="M242.282,189.864c-16.256,0-29.481,13.224-29.481,29.481c0,16.255,13.226,29.48,29.481,29.48 c16.255,0,29.48-13.224,29.48-29.48C271.762,203.09,258.537,189.864,242.282,189.864z M242.282,232.608 c-7.314,0-13.264-5.949-13.264-13.263c0-7.314,5.951-13.264,13.264-13.264c7.313,0,13.263,5.95,13.263,13.264 C255.545,226.659,249.595,232.608,242.282,232.608z"/> <path d="M257.227,317.541c-2.956,5.605-8.724,9.087-15.052,9.087c-6.529,0-12.378-3.643-15.265-9.506 c-1.977-4.019-6.839-5.672-10.856-3.694c-4.018,1.977-5.672,6.838-3.694,10.856c5.635,11.449,17.059,18.562,29.814,18.562 c12.362,0,23.625-6.797,29.396-17.739c2.09-3.961,0.571-8.865-3.389-10.954C264.22,312.063,259.316,313.581,257.227,317.541z"/> </g> </g> </g> </g>
</svg>